<?xml version="1.0" encoding="UTF-8" standalone="no"?>
<svg width="165px" height="165px" viewBox="0 0 165 165" version="1.1" xmlns="http://www.w3.org/2000/svg" xmlns:xlink="http://www.w3.org/1999/xlink" xmlns:sketch="http://www.bohemiancoding.com/sketch/ns">
    <!-- Generator: Sketch 3.4.4 (17249) - http://www.bohemiancoding.com/sketch -->
    <title>appicon</title>
    <desc>Created with Sketch.</desc>
    <defs></defs>
    <g id="Page-1" stroke="none" stroke-width="1" fill="none" fill-rule="evenodd" sketch:type="MSPage">
        <g id="appicon" sketch:type="MSArtboardGroup">
            <g sketch:type="MSLayerGroup" id="main" fill="#4A4A4A">
                <g sketch:type="MSShapeGroup">
                    <path d="M57.525875,0 L107.474125,0 C124.03875,0 132.319,0 141.235875,2.81875 C150.970875,6.362125 158.637875,14.029125 162.18125,23.764125 C165,32.679625 165,40.962625 165,57.525875 L165,107.474125 C165,124.03875 165,132.319 162.18125,141.235875 C158.637875,150.970875 150.970875,158.637875 141.235875,162.179875 C132.319,165 124.03875,165 107.474125,165 L57.525875,165 C40.96125,165 32.679625,165 23.764125,162.179875 C14.029125,158.637875 6.362125,150.970875 2.81875,141.235875 C0,132.319 0,124.03875 0,107.474125 L0,57.525875 C0,40.962625 0,32.679625 2.81875,23.764125 C6.362125,14.029125 14.029125,6.362125 23.764125,2.81875 C32.679625,0 40.96125,0 57.525875,0 Z" id="Background"></path>
                </g>
            </g>
            <g id="Group-+-Group" sketch:type="MSLayerGroup" transform="translate(-1.000000, -1.000000)">
                <g id="Group">
                    <g id="Line-+-Line" stroke="#D8D8D8" stroke-opacity="0.439594656" stroke-width="4.89257812" sketch:type="MSShapeGroup" stroke-linecap="square">
                        <path d="M85.4570312,0.0776022305 L85.4570312,166.943257" id="Line"></path>
                        <path d="M167,83.3369141 L0.134345072,83.3369141" id="Line"></path>
                    </g>
                    <g id="Story-+-GRID" transform="translate(27.235352, 28.213867)">
                        <path d="M20.6792969,26.7134766 C20.6792969,28.6052829 21.4838461,29.5511719 23.0929687,29.5511719 C24.8543057,29.5511719 26.039385,28.9423238 26.6482422,27.7246094 C26.8656912,27.2897114 26.9744141,26.7297886 26.9744141,26.0448242 C26.9744141,25.3598599 26.8113298,24.7238311 26.4851562,24.1367188 C25.9415337,23.201688 25.006517,22.1688208 23.6800781,21.0380859 C21.4838432,19.1680245 20.3857422,17.2273213 20.3857422,15.215918 C20.3857422,13.2045147 21.0163348,11.6552138 22.2775391,10.5679688 C23.5387433,9.48072373 24.9847575,8.93710938 26.615625,8.93710938 C28.2464925,8.93710938 29.5402947,9.35025629 30.4970703,10.1765625 C31.4538459,11.0028687 31.9322266,12.2423094 31.9322266,13.8949219 C31.9322266,14.9821669 31.5680049,15.9280559 30.8395508,16.7326172 C30.1110966,17.5371785 29.1488992,18.0373037 27.9529297,18.2330078 C28.4965522,18.6896507 29.0401666,19.1571591 29.5837891,19.6355469 C30.1056667,20.1139347 30.5840473,20.6358045 31.0189453,21.2011719 C31.9757209,22.484121 32.4541016,24.0171135 32.4541016,25.8001953 C32.4541016,27.0396546 32.165986,28.1595002 31.5897461,29.1597656 C31.0135062,30.160031 30.2633184,31.0026333 29.3391602,31.6875977 C28.4150019,32.372562 27.3766985,32.8998679 26.2242187,33.2695312 C25.071739,33.6391946 23.9953826,33.8240234 22.9951172,33.8240234 C20.8641169,33.8240234 19.2115293,33.3347705 18.0373047,32.35625 C16.667376,31.2472601 15.9824219,29.6490339 15.9824219,27.5615234 C15.9824219,26.1915947 16.4281856,24.8651757 17.3197266,23.5822266 C18.2112675,22.2992774 19.1571565,21.6578125 20.1574219,21.6578125 C20.9402383,21.6578125 21.3316406,21.8970028 21.3316406,22.3753906 C21.3316406,23.0712274 21.2229178,23.7616177 21.0054687,24.446582 C20.7880197,25.1315464 20.6792969,25.8871703 20.6792969,26.7134766 L20.6792969,26.7134766 Z M63.282253,29.9918115 C63.2698458,30.0026674 63.257337,30.0134373 63.2447266,30.0241211 C62.4619101,30.6873406 61.5975633,31.0189453 60.6516602,31.0189453 C59.705757,31.0189453 58.9066439,30.9537116 58.2542969,30.8232422 C56.5364497,32.8455179 54.4761513,33.8566406 52.0733398,33.8566406 C49.6705284,33.8566406 47.8711648,33.2423564 46.6751953,32.0137695 C46.1126151,31.4358462 45.6847606,30.791769 45.3916299,30.0815332 C44.9754371,30.5822756 44.4954492,31.0523938 43.9516602,31.4918945 C43.1579713,32.1333691 42.277316,32.660675 41.309668,33.0738281 C40.3420199,33.4869812 39.4994177,33.6935547 38.7818359,33.6935547 C38.0642542,33.6935547 37.5152037,33.5250342 37.134668,33.1879883 C36.7541322,32.8509423 36.4388359,32.3943063 36.1887695,31.8180664 C35.9387032,31.2418265 35.7593104,30.5677447 35.6505859,29.7958008 C35.5418614,29.0238568 35.4875,27.9420642 35.4875,26.5503906 C35.4875,25.158717 35.7484349,23.2778113 36.2703125,20.9076172 L34.8025391,20.9076172 C34.5416003,20.9076172 34.4111328,20.7988943 34.4111328,20.5814453 C34.4111328,20.0595677 34.4600581,19.6301124 34.5579102,19.2930664 C34.6557622,18.9560205 34.8895164,18.5700543 35.2591797,18.1351562 L36.0419922,18.1351562 C36.3464208,18.1351562 36.6725894,18.124284 37.0205078,18.1025391 C38.064263,14.7538244 39.1297472,13.0794922 40.2169922,13.0794922 C41.0867882,13.1012371 41.6956363,13.6557237 42.0435547,14.7429687 C42.1305343,15.0473974 42.2283849,15.373566 42.3371094,15.7214844 L40.9998047,18.0699219 C42.5219477,18.1134117 43.4841451,18.1351562 43.8864258,18.1351562 C44.2887064,18.1351562 44.5061522,18.1732093 44.5387695,18.2493164 C44.5713869,18.3254236 44.5876953,18.4395826 44.5876953,18.5917969 C44.5876953,18.9832051 44.4952809,19.472458 44.3104492,20.0595703 C44.1256176,20.6466826 43.913608,20.9293621 43.6744141,20.9076172 L40.4126953,20.7445312 C39.9560524,23.3974091 39.7277344,25.5936111 39.7277344,27.3332031 C39.7277344,29.0727952 39.977797,29.9425781 40.4779297,29.9425781 C40.8910828,29.9425781 41.6412706,29.6001011 42.7285156,28.9151367 C43.7007574,28.3026244 44.4295569,27.7118551 44.914931,27.1428146 C44.9541573,24.6775367 45.7692251,22.5447955 47.3601562,20.7445312 C49.0127687,18.8744698 51.1763538,17.9394531 53.8509766,17.9394531 C55.068691,17.9394531 56.0471968,18.0916651 56.7865234,18.3960938 C58.0694726,18.9179714 58.7109375,19.4072243 58.7109375,19.8638672 C58.7109375,20.2117856 57.8139738,20.3911783 56.0200195,20.4020508 C54.2260652,20.4129232 52.7256896,21.0326436 51.5188477,22.2612305 C50.3120057,23.4898173 49.7085937,25.0391183 49.7085937,26.9091797 C49.7085937,27.8877002 49.9967094,28.7085579 50.5729492,29.3717773 C51.1491891,30.0349968 51.9646106,30.3666016 53.0192383,30.3666016 C54.073866,30.3666016 54.9490851,30.1491558 55.6449219,29.7142578 C54.1010339,28.6705026 53.3291016,27.1592547 53.3291016,25.1804687 C53.3073567,24.1367135 53.6824506,23.1853884 54.4543945,22.3264648 C55.2263385,21.4675413 56.2157166,21.0326498 57.4225586,21.0217773 C58.6294006,21.0109049 59.4937474,21.3425097 60.015625,22.0166016 C60.5375026,22.6906935 60.7984375,23.5550403 60.7984375,24.609668 C60.7984375,25.6642956 60.5483749,26.7787051 60.0482422,27.9529297 L60.2439453,27.9529297 C61.2007209,27.9311848 62.0270148,27.5941439 62.7228516,26.9417969 C62.9837904,26.6808581 63.2066723,26.45254 63.3915039,26.2568359 C63.4311299,26.214879 63.4710056,26.1774197 63.5111311,26.144458 C63.5439143,25.8897314 63.5801453,25.6499447 63.6198242,25.4250977 C63.8481457,24.1312761 64.2993456,22.8211655 64.9734375,21.4947266 C63.9731721,20.5379509 63.4730469,19.7116571 63.4730469,19.0158203 C63.4730469,17.558912 64.2558515,16.8304687 65.8214844,16.8304687 C66.6260457,16.8304687 67.3327444,17.2544879 67.9416016,18.1025391 C68.3764996,18.6896514 68.6917959,19.3746055 68.8875,20.1574219 C69.1919286,20.2661464 69.5724587,20.3205078 70.0291016,20.3205078 C70.6597037,20.3205078 71.3881469,20.1139344 72.2144531,19.7007813 L73.0625,19.2767578 C73.3234388,19.1462884 73.5517568,19.0810547 73.7474609,19.0810547 C74.378063,19.0810547 75.0086557,20.0051991 75.6392578,21.8535156 C75.4435537,22.7015667 75.2315441,23.5169883 75.0032227,24.2998047 C74.7749012,25.0826211 74.5085302,26.0285101 74.2041016,27.1375 C73.899673,28.2464899 73.7420248,28.9912416 73.7311523,29.3717773 C73.7202799,29.7523131 73.8344389,29.9425781 74.0736328,29.9425781 C74.3998063,29.9425781 74.8020809,29.7360047 75.2804687,29.3228516 C75.7588566,28.9096985 76.2372372,28.4584985 76.715625,27.9692383 C77.1940128,27.479978 77.6343404,27.0287781 78.0366211,26.615625 C78.0779568,26.5731721 78.1179723,26.5329004 78.1566676,26.4948098 C78.1968026,26.4169509 78.2383301,26.3376263 78.28125,26.2568359 L79.2271484,18.5265625 C79.9012403,18.0046849 80.8145125,17.74375 81.9669922,17.74375 C82.9455127,17.74375 83.4999993,18.3960872 83.6304687,19.7007813 C83.6739586,20.0921895 83.6957031,20.5542617 83.6957031,21.0870117 C83.6957031,21.6197618 83.6087248,22.1796846 83.4347656,22.7667969 C82.5649696,25.7675931 82.1409504,27.7789662 82.1626953,28.8009766 C82.1626953,29.583793 82.6193314,29.9751953 83.5326172,29.9751953 C84.445903,29.9751953 85.1199848,29.6816436 85.5548828,29.0945312 C85.9897808,28.5074189 86.3594386,27.7789757 86.6638672,26.9091797 C87.2292346,24.4954957 87.7565405,22.5058672 88.2458008,20.9402344 C88.735061,19.3746015 89.0449212,18.4395849 89.1753906,18.1351562 C89.3928396,17.6132786 89.8059865,17.3414715 90.4148437,17.3197266 C91.023701,17.3414715 91.5999322,17.7709268 92.1435547,18.6081055 C92.6871772,19.4452841 92.9589844,20.0921852 92.9589844,20.5488281 C92.9154946,22.0709712 91.9696056,25.9088885 90.1212891,32.0626953 C91.5347076,30.9537054 92.9372326,29.5946695 94.3289062,27.9855469 C94.8072941,27.4201795 95.2095687,26.947235 95.5357422,26.5666992 C95.8619157,26.1861635 96.1228506,25.9958984 96.3185547,25.9958984 C96.6229833,25.9958984 96.7751953,26.3438116 96.7751953,27.0396484 C96.7751953,28.4095772 96.0086991,30.0078034 94.4756836,31.834375 C92.9426681,33.6609466 91.0671986,35.0852162 88.8492187,36.1072266 C88.5882799,36.9770226 88.3056005,37.8033164 88.0011719,38.5861328 C87.6967433,39.3689492 87.3053409,40.0539033 86.8269531,40.6410156 C85.7831979,41.9022198 84.195844,42.5328125 82.0648437,42.5328125 C80.6296803,42.5328125 79.406548,42.1196656 78.3954102,41.2933594 C77.3842723,40.4670532 76.8787109,39.4341859 76.8787109,38.1947266 C76.8787109,37.4988898 77.1124651,36.9444031 77.5799805,36.53125 C78.0474958,36.1180969 78.6889608,35.7756198 79.5043945,35.5038086 C80.3198283,35.2319973 81.2711534,34.992807 82.3583984,34.7862305 C83.4456435,34.5796539 84.6089782,34.3241552 85.8484375,34.0197266 C86.1528661,32.7150325 86.3594396,31.7800158 86.4681641,31.2146484 C85.380919,32.7150466 83.9240326,33.4652344 82.0974609,33.4652344 C80.6188077,33.4652344 79.4391646,33.1553742 78.5584961,32.5356445 C78.1106217,32.2204737 77.776635,31.8111047 77.5565341,31.3075338 C77.4901138,31.3853577 77.4218225,31.4631199 77.3516602,31.5408203 C76.0360937,32.9977286 74.5302819,33.7152996 72.8341797,33.6935547 C71.8339143,33.6935547 71.0837265,33.2912801 70.5835937,32.4867187 C70.083461,31.6821574 69.8225262,30.7036516 69.8007812,29.5511719 C69.8007812,27.2679573 70.3117787,25.1043722 71.3337891,23.0603516 C70.8554013,23.2560557 70.317223,23.3539062 69.7192383,23.3539062 C69.1212535,23.3539062 68.6917982,23.3321617 68.4308594,23.2886719 C68.2351553,24.1149781 68.0394541,24.9467081 67.84375,25.7838867 C67.6480459,26.6210654 67.5501953,27.3984339 67.5501953,28.1160156 L67.7458984,32.0953125 C67.7458984,32.6171901 67.4740913,33.0846985 66.9304687,33.4978516 C66.3868462,33.9110047 65.6475307,34.1175781 64.7125,34.1175781 C64.1688775,34.1175781 63.7937836,33.8348987 63.587207,33.2695312 C63.3806305,32.7041638 63.2773438,31.87787 63.2773438,30.790625 C63.2773438,30.5172622 63.2789802,30.2509911 63.282253,29.9918115 Z M27.0070312,17.4501953 C28.2464906,16.210736 28.8662109,14.9169338 28.8662109,13.56875 C28.8662109,13.1555969 28.6487652,12.8076837 28.2138672,12.525 C27.7354794,12.2640612 27.2353542,12.1335938 26.7134766,12.1335938 C25.5392519,12.1335938 24.6912135,12.5141238 24.1693359,13.2751953 C24.4302747,14.210226 24.8162409,15.003903 25.3272461,15.65625 C25.8382513,16.308597 26.398174,16.9065728 27.0070312,17.4501953 Z M57.9607422,27.0396484 C58.3304055,26.256832 58.5152344,25.4957719 58.5152344,24.7564453 C58.5152344,24.0171187 58.2760441,23.6474609 57.7976562,23.6474609 C57.6019521,23.6474609 57.4388678,23.7888007 57.3083984,24.0714844 C57.177929,24.3541681 57.1126953,24.6259753 57.1126953,24.8869141 C57.1126953,25.7567101 57.3953748,26.474281 57.9607422,27.0396484 L57.9607422,27.0396484 Z M82.0322266,40.0212891 C83.0542369,40.0212891 83.9783813,39.1297615 84.8046875,37.3466797 C84.0218711,37.498894 83.3260447,37.613053 82.7171875,37.6891602 C82.1083303,37.7652673 81.5864605,37.8359372 81.1515625,37.9011719 C80.2817665,38.0316413 79.8577473,38.2599593 79.8794922,38.5861328 C79.8794922,38.9992859 80.1241186,39.3471991 80.6133789,39.6298828 C81.1026392,39.9125665 81.5755837,40.043034 82.0322266,40.0212891 L82.0322266,40.0212891 Z" id="Story-Copy" fill="#41D1DF" sketch:type="MSShapeGroup"></path>
                        <text id="GRID" sketch:type="MSTextLayer" font-family="SF UI Text" font-size="46.96875" font-weight="normal" fill="#FFFFFF">
                            <tspan x="0" y="78.921875">GRID</tspan>
                        </text>
                    </g>
                </g>
            </g>
        </g>
    </g>
</svg>